<svg width="34" height="28" viewBox="0 0 34 28" fill="none" xmlns="http://www.w3.org/2000/svg">
<path d="M5.74967 0.666016H28.2497C29.6332 0.665925 30.9644 1.19527 31.9701 2.14547C32.9757 3.09566 33.5797 4.39467 33.658 5.77602L33.6663 6.08268V21.916C33.6664 23.2996 33.1371 24.6307 32.1869 25.6364C31.2367 26.6421 29.9377 27.246 28.5563 27.3243L28.2497 27.3327H5.74967C4.36611 27.3328 3.03496 26.8034 2.02929 25.8532C1.02362 24.903 0.419672 23.604 0.341341 22.2227L0.333008 21.916V6.08268C0.332917 4.69912 0.862265 3.36797 1.81246 2.3623C2.76266 1.35663 4.06166 0.75268 5.44301 0.674349L5.74967 0.666016H28.2497H5.74967ZM31.1663 9.62102L17.583 16.771C17.4296 16.852 17.2611 16.9003 17.088 16.9126C16.915 16.9249 16.7413 16.9011 16.578 16.8427L16.418 16.7727L2.83301 9.62268V21.916C2.83304 22.648 3.10829 23.3532 3.60414 23.8917C4.09999 24.4301 4.78017 24.7624 5.50967 24.8227L5.74967 24.8327H28.2497C28.9819 24.8326 29.6874 24.5571 30.2259 24.0609C30.7644 23.5647 31.0965 22.8841 31.1563 22.1543L31.1663 21.916V9.62102ZM28.2497 3.16602H5.74967C5.01769 3.16604 4.31248 3.4413 3.77402 3.93715C3.23557 4.433 2.90324 5.11318 2.84301 5.84268L2.83301 6.08268V6.79768L16.9997 14.2527L31.1663 6.79602V6.08268C31.1663 5.35043 30.8908 4.645 30.3946 4.1065C29.8984 3.56801 29.2178 3.23585 28.488 3.17602L28.2497 3.16602Z" fill="#333333"/>
</svg>
